<?xml version="1.0" encoding="utf-8"?>
<!-- Generator: Adobe Illustrator 22.0.1, SVG Export Plug-In . SVG Version: 6.00 Build 0)  -->
<svg version="1.1" id="图层_1" xmlns="http://www.w3.org/2000/svg" xmlns:xlink="http://www.w3.org/1999/xlink" x="0px" y="0px"
	 viewBox="0 0 256 256" style="enable-background:new 0 0 256 256;" xml:space="preserve">
<style type="text/css">
	.st0{fill:#FFFFFF;stroke:#FFFFFF;stroke-miterlimit:10;}
	.st1{fill:#FFFFFF;stroke:#FFFFFF;stroke-width:0.792;stroke-miterlimit:10;}
</style>
<path class="st0" d="M21.9-313.7"/>
<g id="cloveroll_x5F_logo">
	<path class="st1" d="M136.8,135.1c0-2.3,3.2-2.8,3.9-0.7c1,3.3,2.2,7,3.4,11.1c19.9,77.2,86.5,49.3,67.1-0.2
		c-0.4-1,0.2-2.2,1.2-2.6c46.2-17.4,31.5-69.4-34.4-54.8c-0.1,0.1-0.3,0.1-0.4,0.1c-47.9,17.3-47.9,17.3-9.2-10.5
		c0.1-0.1,0.2-0.2,0.2-0.2c42.7-41.4,23.4-101.5-34-61.2c-0.7,0.5-1.6,0.5-2.3,0C74.2-22.7,54.5,36.4,99,77.9
		c30.5,29.6,30.5,29.6-10.3,18.2c-0.1,0-0.2-0.1-0.2-0.1c-64.8-10.5-104.4,28.2-35.9,51.3c0.9,0.3,1.5,1.3,1.3,2.2
		c-10.1,68.8,46.3,50.5,65.2-5.2c0-0.1,0.1-0.2,0.1-0.2c0-0.1,0-0.2,0.1-0.2c0.6-2.4,4-1.9,4,0.6l-3.9,106.9c-0.1,1.1,0.9,2,2,2
		h13.3c1.1,0,2-0.9,2-2L136.8,135.1z"/>
</g>
</svg>
