<?xml version="1.0" encoding="utf-8"?>
<!-- Generator: Adobe Illustrator 22.0.1, SVG Export Plug-In . SVG Version: 6.00 Build 0)  -->
<svg version="1.1" id="图层_1" xmlns="http://www.w3.org/2000/svg" xmlns:xlink="http://www.w3.org/1999/xlink" x="0px" y="0px"
	 viewBox="0 0 1024 256" style="enable-background:new 0 0 1024 256;" xml:space="preserve">
<style type="text/css">
	.st0{enable-background:new    ;}
	.st1{fill:#028090;}
</style>
<symbol  id="clover" viewBox="-510.4 -100.7 1020.7 201.5">
	<g class="st0">
		<path class="st1" d="M-440.3,100.7c5.4,0,10.4-0.7,15-2c4.6-1.3,8.5-3,11.9-4.9c3.3-1.9,5.9-4,7.8-6.3c1.9-2.2,2.8-4.3,2.8-6.1
			c0-3.8-0.1-8.8-0.3-14.9c-0.2-6.1-0.5-13.5-0.8-22.2l-5.4,0.3c0,0.8,0.1,1.5,0.1,2.2c0,0.7,0,1.4,0,2.2c0,3.8-0.4,7.5-1,11
			c-0.6,3.5-1.7,6.8-3.2,10c-1.6,3.2-3.6,6-5.9,8.4c-2.3,2.4-4.8,4.5-7.5,6.2c-2.7,1.7-5.6,2.9-8.7,3.8c-3.1,0.9-6.2,1.3-9.4,1.3
			c-5.5,0-10.5-1.2-15-3.5c-4.5-2.3-8.5-5.5-12.1-9.6c-3.5-4.1-6.6-8.9-9.2-14.5c-2.6-5.6-4.8-11.7-6.5-18.2
			c-1.7-6.6-3-13.5-3.8-20.7c-0.8-7.2-1.3-14.5-1.3-21.9c0-8.7,0.5-17,1.6-24.7c1.1-7.7,2.6-14.9,4.6-21.4c2-6.5,4.4-12.4,7.2-17.5
			c2.8-5.2,5.9-9.6,9.4-13.1c3.5-3.6,7.2-6.3,11.3-8.2c4.1-1.9,8.3-2.8,12.8-2.8c3.1,0,6.3,0.5,9.7,1.4c3.3,0.9,6.7,2.4,10.1,4.3
			c3.4,2,6.9,4.5,10.3,7.5c3.5,3,6.9,6.7,10.4,10.9c0.3-0.2,0.7-0.5,1.1-0.8c0.4-0.3,0.8-0.7,1.2-1.1c0.4-0.4,0.7-0.9,1-1.4
			c0.3-0.5,0.4-1,0.4-1.5c0-0.3-0.2-0.8-0.5-1.4c-4-6-8.1-11-12.2-15.1c-4.1-4.1-8.3-7.3-12.4-9.8c-4.2-2.5-8.3-4.3-12.6-5.4
			c-4.2-1.1-8.4-1.6-12.6-1.6c-5.6,0-10.9,1-15.9,3.1c-5,2.1-9.7,5.1-14,9s-8.2,8.6-11.7,14.1c-3.5,5.5-6.5,11.8-9,18.7
			c-2.5,6.9-4.4,14.4-5.7,22.5c-1.3,8.1-2,16.7-2,25.7c0,8.7,0.6,17.4,1.9,26.2c1.3,8.8,3.2,17.2,5.8,25.2c2.6,8,5.8,15.5,9.7,22.5
			c3.9,7,8.4,13,13.6,18.2c5.2,5.1,11,9.2,17.5,12.1C-455.3,99.3-448.1,100.7-440.3,100.7z"/>
		<path class="st1" d="M-373,69.9c0,2.6-0.1,4.9-0.3,6.7c-0.2,1.9-0.6,3.4-1.3,4.5c-0.7,1.2-1.6,2-2.8,2.5c-1.2,0.5-2.8,0.8-4.8,0.8
			c-1.4,0-3-0.1-5-0.3c-2-0.2-4-0.5-6.2-1l-0.6,6.9c6,2.1,11.2,3.7,15.6,4.7c4.3,1,7.9,1.5,10.8,1.5c2.7,0,4.8-0.5,6.3-1.5
			c1.5-1,2.5-2.4,3.2-4.3c0.7-1.9,1.1-4.3,1.2-7.1c0.1-2.8,0.2-6,0.2-9.5c0-0.2,0-2.1-0.1-5.5c0-3.5-0.1-8-0.2-13.7
			c-0.1-5.7-0.2-12.3-0.4-19.9c-0.1-7.5-0.3-15.5-0.5-24c-0.2-8.4-0.4-17.1-0.6-26c-0.2-8.9-0.5-17.6-0.8-26
			c-0.3-8.4-0.6-16.4-1-23.9c-0.4-7.5-0.7-14.1-1.1-19.7c4,0.8,7.7,1.3,11.2,1.7c3.5,0.4,6.7,0.5,9.8,0.5c4.2,0,8.2-0.2,11.9-0.5
			c3.7-0.3,7.3-0.5,10.9-0.5c2.5,0,4.7,0.5,6.7,1.5c2,1,3.6,2.8,5,5.3c1.4,2.5,2.6,5.9,3.5,10.2c0.9,4.3,1.6,9.7,2.1,16.4l5.4-0.6
			c0-9.8-0.5-17.8-1.3-24.2c-0.8-6.3-2-11.3-3.6-14.9c-1.6-3.6-3.5-6.2-5.7-7.6c-2.2-1.4-4.8-2.1-7.7-2.1c-2.2,0-4.6,0.3-7.2,0.8
			c-2.6,0.6-5.5,1.2-8.6,1.9c-3.1,0.7-6.5,1.3-10.1,1.9c-3.6,0.6-7.5,0.8-11.7,0.8c-3.7,0-7.8-0.3-12.2-1c-4.4-0.6-8.9-1.7-13.5-3.2
			l-1.1,0.2c0.7,7.6,1.3,15.8,1.8,24.6c0.5,8.8,0.9,17.9,1.3,27.3c0.3,9.5,0.6,19.1,0.9,29c0.2,9.9,0.4,19.8,0.6,29.7
			c0.1,9.9,0.2,19.7,0.2,29.3C-373,51.6-373,60.9-373,69.9z"/>
		<path class="st1" d="M-229.4-100.2c-8.3,0-15.9,1.9-22.8,5.8c-6.9,3.9-12.9,9.7-17.9,17.4c-5,7.7-8.9,17.2-11.7,28.7
			c-2.8,11.4-4.2,24.7-4.2,39.9c0,9.6,0.6,18.9,1.7,28c1.2,9.1,2.9,17.7,5.2,25.8c2.3,8.1,5.2,15.5,8.6,22.3
			c3.4,6.8,7.4,12.6,12,17.5c4.6,4.9,9.7,8.7,15.4,11.4c5.7,2.7,11.9,4.1,18.7,4.1c8.3,0,15.9-1.9,22.8-5.8
			c6.9-3.9,12.9-9.7,17.9-17.4c5-7.7,8.9-17.2,11.7-28.7c2.8-11.5,4.2-24.7,4.2-39.8c0-9.6-0.6-18.9-1.7-28
			c-1.2-9.1-2.9-17.7-5.2-25.8c-2.3-8.1-5.2-15.5-8.6-22.3c-3.4-6.8-7.4-12.6-12-17.5c-4.6-4.9-9.7-8.7-15.4-11.4
			C-216.4-98.8-222.6-100.2-229.4-100.2z M-226.6-89.3c4.8,0,9.1,1.1,13,3.2c3.9,2.1,7.4,5.1,10.5,8.9c3.1,3.8,5.7,8.5,8,13.9
			c2.3,5.5,4.1,11.5,5.6,18.2c1.5,6.7,2.6,13.9,3.3,21.7c0.7,7.7,1.1,15.9,1.1,24.4c0,15.1-1.1,28.3-3.3,39.4
			c-2.2,11.2-5.2,20.4-9,27.7c-3.8,7.3-8.2,12.8-13.2,16.4c-5,3.6-10.4,5.4-16.1,5.4c-4.8,0-9.1-1.1-13-3.2
			c-3.9-2.1-7.4-5.1-10.5-8.9c-3.1-3.8-5.7-8.5-8-13.9c-2.3-5.5-4.1-11.5-5.6-18.2c-1.5-6.7-2.6-13.9-3.3-21.7
			c-0.7-7.8-1.1-15.9-1.1-24.3c0-15.1,1.1-28.3,3.3-39.4c2.2-11.2,5.2-20.4,9-27.7c3.8-7.3,8.2-12.8,13.2-16.4
			C-237.6-87.5-232.3-89.3-226.6-89.3z"/>
		<path class="st1" d="M-129.5,75.9c1.5-6.5,3.2-14.3,5-23.5c1.8-9.2,3.8-19.9,5.8-32.4c2.1-12.4,4.3-26.7,6.6-42.7
			c2.3-16,4.8-34.2,7.3-54.4h0.4c3.8,10,7.6,20,11.2,29.9c3.6,9.9,7.1,19.5,10.3,28.9c3.2,9.4,6.2,18.4,8.8,27
			c2.7,8.7,5,16.8,6.9,24.3c1.9,7.6,3.4,14.5,4.5,20.7c1.1,6.3,1.6,11.7,1.6,16.3c0,11.7-2.9,20.9-8.6,27.6l0.5,1.5
			c0.8,0.2,1.6,0.3,2.4,0.4c0.8,0.1,1.7,0.2,2.5,0.2c2.1,0,4.2-0.3,6.2-1c2-0.7,3.9-1.9,5.5-3.5c1.6-1.6,2.9-3.8,3.9-6.5
			c1-2.7,1.5-6.1,1.5-10.2c0-3.6-0.6-8.6-1.9-14.9c-1.3-6.3-3.1-13.8-5.5-22.3c-2.4-8.5-5.3-18-8.7-28.5
			c-3.4-10.5-7.3-21.6-11.6-33.5c-4.3-11.9-9-24.3-14-37.4c-5.1-13-10.5-26.4-16.1-40.1l-10.1-1.1l-1.3,0.3
			c-6.4,44.1-11.8,80-16.3,107.6c-4.5,27.6-8.4,47.2-11.6,58.7c-0.8,2.9-1.7,5.5-2.5,7.6s-1.9,3.8-3,5.2c-1.1,1.3-2.4,2.3-3.9,2.9
			c-1.5,0.6-3.3,0.9-5.5,0.9c-1.4,0-2.9-0.1-4.5-0.4c-1.6-0.3-3.5-0.6-5.6-1l-0.7,7.4c6.4,2.2,11.7,3.8,16,5
			c4.3,1.2,7.9,1.8,10.8,1.8c2.1,0,3.8-0.4,5.2-1.2c1.4-0.8,2.5-2.1,3.5-3.8c1-1.7,1.8-3.9,2.6-6.5
			C-131.2,82.8-130.4,79.6-129.5,75.9z"/>
		<path class="st1" d="M-23.8,70.3c0,2.3-0.1,4.3-0.4,6c-0.3,1.7-0.8,3-1.5,4c-0.7,1-1.7,1.8-3,2.3c-1.3,0.5-2.9,0.7-4.9,0.7
			c-1.3,0-2.8-0.1-4.4-0.3c-1.6-0.2-3.5-0.5-5.6-0.8l-0.7,7.8c4,0.8,7.8,1.6,11.2,2.2c3.5,0.6,6.7,1.2,9.7,1.7c3,0.5,5.9,0.8,8.5,1
			c2.6,0.2,5.1,0.3,7.5,0.3c6.5,0,12.7,0.1,18.5,0.2c5.8,0.1,11,0.3,15.5,0.4c4.5,0.1,8.2,0.3,11.1,0.4c2.9,0.1,4.7,0.2,5.3,0.2
			c1.9,0,3.3-0.6,4.4-1.8c1-1.2,1.5-3,1.5-5.5c0-1-0.1-2.9-0.2-5.8c-0.1-2.9-0.3-6.2-0.6-10c-0.2-3.8-0.5-7.7-0.8-11.9
			c-0.3-4.2-0.6-8.1-0.9-11.7L40.4,50c0.1,2.1,0.1,4.1,0.2,5.9c0,1.8,0.1,3.6,0.1,5.2c0,4.7-0.2,8.5-0.6,11.4
			c-0.4,2.9-1.2,5.2-2.3,6.9c-1.1,1.7-2.6,2.8-4.5,3.4c-1.9,0.6-4.3,0.9-7.2,1c-4.1,0.1-7.7,0.1-10.7,0.1c-3.1,0-6,0-8.9,0H3.2
			c-1.6,0-3.2,0-4.8,0c-1.6,0-3.6-0.1-5.9-0.2c-0.1-4.6-0.2-9.8-0.3-15.5C-7.8,62.5-8,56.4-8.1,49.9s-0.3-13.4-0.4-20.6
			C-8.6,22.1-8.8,14.6-9,6.9c5.3-0.3,10-0.6,14.1-0.7C9.3,6.1,13.1,6,16.6,6c4.2,0,8,0.2,11.3,0.5c3.3,0.4,6.4,0.9,9.3,1.7
			c0.7-2.4,1-4.6,1-6.6c0-1.6-0.4-3-1.1-4.1c-0.7-1.1-1.8-2-3.1-2.7c-1.4-0.7-3-1.2-4.9-1.5c-1.9-0.3-4.1-0.5-6.5-0.5
			c-4.2,0-9,0.3-14.4,1C2.7-5.5-3.1-4.7-9.2-3.8C-9.3-7-9.4-10.9-9.5-15.4c-0.1-4.5-0.3-9.4-0.4-14.5c-0.2-5.1-0.4-10.4-0.6-15.7
			C-10.8-51-11-56.1-11.2-61c-0.2-4.9-0.5-9.4-0.7-13.5c-0.3-4.1-0.5-7.4-0.8-10.1c4,0.8,7.9,1.3,11.7,1.7c3.8,0.4,7.2,0.5,10.3,0.5
			c4.3,0,8.4-0.2,12.1-0.5c3.8-0.3,7.5-0.5,11.2-0.5c2.5,0,4.6,0.5,6.5,1.4c1.9,0.9,3.5,2.6,4.9,4.9c1.4,2.4,2.6,5.6,3.5,9.6
			s1.7,9.1,2.2,15.3l5.6-0.4c-0.1-9.3-0.6-17.1-1.5-23.1c-0.9-6.1-2.1-10.8-3.6-14.4c-1.5-3.5-3.4-5.9-5.6-7.3c-2.2-1.4-4.7-2-7.5-2
			c-2.2,0-4.7,0.3-7.3,0.8c-2.7,0.6-5.6,1.2-8.8,1.9c-3.2,0.7-6.6,1.3-10.3,1.9C6.8-94.3,2.9-94-1.4-94c-3.7,0-7.9-0.3-12.4-1
			c-4.5-0.6-9.1-1.7-13.9-3.2l-1.1,0.2c0.6,5.6,1.2,12.3,1.6,20.2c0.5,7.9,0.9,16.5,1.3,25.9c0.4,9.4,0.7,19.3,0.9,29.7
			c0.2,10.4,0.5,20.9,0.6,31.5c0.2,10.6,0.3,21.1,0.3,31.5C-23.9,51.1-23.8,61-23.8,70.3z"/>
		<path class="st1" d="M82.5,70.3c0,2.3-0.1,4.3-0.4,6c-0.3,1.7-0.8,3-1.5,4.1c-0.7,1.1-1.7,1.8-3,2.3c-1.3,0.5-2.9,0.8-4.9,0.8
			c-2.7,0-6.2-0.4-10.4-1.3l-0.7,7.4c3.8,0.9,8,1.9,12.6,2.9c4.5,1,9.2,1.9,14,2.8c4.8,0.8,9.6,1.5,14.4,2c4.8,0.5,9.5,0.8,13.9,0.8
			c6,0,11.5-0.7,16.6-2.1c5.1-1.4,9.5-3.8,13.3-7.1c3.7-3.3,6.7-7.7,8.8-13.1c2.1-5.4,3.2-12.1,3.2-20.1c0-7.4-0.9-14.2-2.7-20.3
			c-1.8-6.1-4.3-11.6-7.6-16.5c-3.3-4.8-7.2-9-11.9-12.4c-4.7-3.5-9.8-6.2-15.6-8.2c4.3-9.9,8.2-18.6,11.7-26.1
			c3.5-7.5,6.7-14.1,9.6-19.7c2.9-5.6,5.6-10.5,8-14.5c2.4-4,4.7-7.5,6.9-10.5c1.7-2.4,3.3-4.4,4.8-6.1c1.5-1.6,2.9-3,4.3-4
			c1.4-1,2.8-1.7,4.2-2.2c1.4-0.4,2.9-0.7,4.4-0.7c1.6,0,3.2,0.2,4.7,0.7c1.5,0.4,3.1,1.1,4.9,2l1.7-6.8c-5.2-3.2-9.9-5.6-13.9-7.2
			c-4-1.6-7.4-2.4-10.1-2.4c-1.4,0-2.7,0.2-3.9,0.6s-2.4,1-3.6,1.9s-2.4,1.9-3.6,3.2c-1.2,1.3-2.5,2.9-3.8,4.6
			c-2.2,2.8-4.8,6.7-7.7,11.6c-2.9,4.9-6.2,11-9.9,18.3c-3.7,7.3-7.8,16-12.3,26c-4.5,10-9.4,21.6-14.8,34.7l0.1,1.1
			c7.3,0.4,13.4,1.8,18.5,4.1s9.1,5.5,12.2,9.5c3.1,4,5.4,8.8,6.8,14.3c1.4,5.5,2.1,11.7,2.1,18.6c0,13.1-2.6,23-7.7,29.5
			s-12.7,9.8-22.7,9.8c-2.1,0-4.2-0.1-6.1-0.3c-1.9-0.2-4.1-0.5-6.4-0.9c-0.1-4.3-0.2-10-0.3-17.2S98.2,54.7,98,45.4
			c-0.2-9.3-0.4-19.5-0.6-30.6C97.1,3.6,96.8-8,96.6-20.1c-0.2-12.1-0.5-24.5-0.8-37.3s-0.6-25.5-0.9-38.2l-14.6-2.5l-1.1,0.2
			c0.5,16,0.9,31.1,1.4,45.4c0.4,14.3,0.8,28.2,1,41.8c0.3,13.5,0.5,27,0.6,40.2C82.4,42.8,82.5,56.4,82.5,70.3z"/>
		<path class="st1" d="M237.8-100.2c-8.3,0-15.9,1.9-22.8,5.8s-12.9,9.7-17.9,17.4c-5,7.7-8.9,17.2-11.7,28.7
			c-2.8,11.4-4.2,24.7-4.2,39.9c0,9.6,0.6,18.9,1.7,28c1.2,9.1,2.9,17.7,5.2,25.8c2.3,8.1,5.2,15.5,8.6,22.3
			c3.4,6.8,7.4,12.6,12,17.5c4.6,4.9,9.7,8.7,15.4,11.4c5.7,2.7,11.9,4.1,18.7,4.1c8.3,0,15.9-1.9,22.8-5.8
			c6.9-3.9,12.9-9.7,17.9-17.4c5-7.7,8.9-17.2,11.7-28.7c2.8-11.5,4.2-24.7,4.2-39.8c0-9.6-0.6-18.9-1.7-28
			c-1.2-9.1-2.9-17.7-5.2-25.8c-2.3-8.1-5.2-15.5-8.6-22.3c-3.4-6.8-7.4-12.6-12-17.5c-4.6-4.9-9.7-8.7-15.4-11.4
			S244.6-100.2,237.8-100.2z M240.6-89.3c4.8,0,9.1,1.1,13,3.2c3.9,2.1,7.4,5.1,10.5,8.9c3.1,3.8,5.7,8.5,8,13.9
			c2.3,5.5,4.1,11.5,5.6,18.2c1.5,6.7,2.6,13.9,3.3,21.7C281.7-15.6,282-7.5,282,1c0,15.1-1.1,28.3-3.3,39.4
			c-2.2,11.2-5.2,20.4-9,27.7c-3.8,7.3-8.2,12.8-13.2,16.4c-5,3.6-10.4,5.4-16.1,5.4c-4.8,0-9.1-1.1-13-3.2
			c-3.9-2.1-7.4-5.1-10.5-8.9c-3.1-3.8-5.7-8.5-8-13.9c-2.3-5.5-4.1-11.5-5.6-18.2c-1.5-6.7-2.6-13.9-3.3-21.7S199,8,199-0.4
			c0-15.1,1.1-28.3,3.3-39.4c2.2-11.2,5.2-20.4,9-27.7c3.8-7.3,8.2-12.8,13.2-16.4C229.6-87.5,234.9-89.3,240.6-89.3z"/>
		<path class="st1" d="M330.4,69.9c0,2.6-0.1,4.9-0.3,6.7c-0.2,1.9-0.6,3.4-1.3,4.5c-0.7,1.2-1.6,2-2.8,2.5
			c-1.2,0.5-2.8,0.8-4.8,0.8c-1.4,0-3-0.1-5-0.3c-2-0.2-4-0.5-6.2-1l-0.6,6.9c6,2.1,11.2,3.7,15.6,4.7c4.3,1,7.9,1.5,10.8,1.5
			c2.7,0,4.8-0.5,6.3-1.5s2.5-2.4,3.2-4.3c0.7-1.9,1.1-4.3,1.2-7.1c0.1-2.8,0.2-6,0.2-9.5c0-0.2,0-2.1-0.1-5.5c0-3.5-0.1-8-0.2-13.7
			c-0.1-5.7-0.2-12.3-0.4-19.9c-0.1-7.5-0.3-15.5-0.5-24c-0.2-8.4-0.4-17.1-0.6-26c-0.2-8.9-0.5-17.6-0.8-26
			c-0.3-8.4-0.6-16.4-1-23.9c-0.4-7.5-0.7-14.1-1.1-19.7c4,0.8,7.7,1.3,11.2,1.7c3.5,0.4,6.7,0.5,9.8,0.5c4.2,0,8.2-0.2,11.9-0.5
			c3.7-0.3,7.3-0.5,10.9-0.5c2.5,0,4.7,0.5,6.7,1.5c2,1,3.6,2.8,5,5.3c1.4,2.5,2.6,5.9,3.5,10.2c0.9,4.3,1.6,9.7,2.1,16.4l5.4-0.6
			c0-9.8-0.5-17.8-1.3-24.2c-0.8-6.3-2-11.3-3.6-14.9c-1.6-3.6-3.5-6.2-5.7-7.6c-2.2-1.4-4.8-2.1-7.7-2.1c-2.2,0-4.6,0.3-7.2,0.8
			c-2.6,0.6-5.5,1.2-8.6,1.9c-3.1,0.7-6.5,1.3-10.1,1.9c-3.6,0.6-7.5,0.8-11.7,0.8c-3.7,0-7.8-0.3-12.2-1c-4.4-0.6-8.9-1.7-13.5-3.2
			l-1.1,0.2c0.7,7.6,1.3,15.8,1.8,24.6c0.5,8.8,0.9,17.9,1.3,27.3c0.3,9.5,0.6,19.1,0.9,29c0.2,9.9,0.4,19.8,0.6,29.7
			c0.1,9.9,0.2,19.7,0.2,29.3C330.3,51.6,330.4,60.9,330.4,69.9z"/>
		<path class="st1" d="M432.5,69.9c0,2.6-0.1,4.9-0.3,6.7c-0.2,1.9-0.6,3.4-1.3,4.5c-0.7,1.2-1.6,2-2.8,2.5
			c-1.2,0.5-2.8,0.8-4.8,0.8c-1.4,0-3-0.1-5-0.3c-2-0.2-4-0.5-6.2-1l-0.6,6.9c6,2.1,11.2,3.7,15.6,4.7c4.3,1,7.9,1.5,10.8,1.5
			c2.7,0,4.8-0.5,6.3-1.5s2.5-2.4,3.2-4.3c0.7-1.9,1.1-4.3,1.2-7.1c0.1-2.8,0.2-6,0.2-9.5c0-0.2,0-2.1-0.1-5.5c0-3.5-0.1-8-0.2-13.7
			c-0.1-5.7-0.2-12.3-0.4-19.9c-0.1-7.5-0.3-15.5-0.5-24c-0.2-8.4-0.4-17.1-0.6-26c-0.2-8.9-0.5-17.6-0.8-26
			c-0.3-8.4-0.6-16.4-1-23.9c-0.4-7.5-0.7-14.1-1.1-19.7c4,0.8,7.7,1.3,11.2,1.7c3.5,0.4,6.7,0.5,9.8,0.5c4.2,0,8.2-0.2,11.9-0.5
			c3.7-0.3,7.3-0.5,10.9-0.5c2.5,0,4.7,0.5,6.7,1.5c2,1,3.6,2.8,5,5.3c1.4,2.5,2.6,5.9,3.5,10.2c0.9,4.3,1.6,9.7,2.1,16.4l5.4-0.6
			c0-9.8-0.5-17.8-1.3-24.2c-0.8-6.3-2-11.3-3.6-14.9c-1.6-3.6-3.5-6.2-5.7-7.6c-2.2-1.4-4.8-2.1-7.7-2.1c-2.2,0-4.6,0.3-7.2,0.8
			c-2.6,0.6-5.5,1.2-8.6,1.9c-3.1,0.7-6.5,1.3-10.1,1.9c-3.6,0.6-7.5,0.8-11.7,0.8c-3.7,0-7.8-0.3-12.2-1c-4.4-0.6-8.9-1.7-13.5-3.2
			l-1.1,0.2c0.7,7.6,1.3,15.8,1.8,24.6c0.5,8.8,0.9,17.9,1.3,27.3c0.3,9.5,0.6,19.1,0.9,29c0.2,9.9,0.4,19.8,0.6,29.7
			c0.1,9.9,0.2,19.7,0.2,29.3C432.4,51.6,432.5,60.9,432.5,69.9z"/>
	</g>
</symbol>
<use xlink:href="#clover"  width="1020.7" height="201.5" x="-510.4" y="-100.7" transform="matrix(1 0 0 -1 512.395 120.7588)" style="overflow:visible;"/>
</svg>
